<svg width="244" height="184" viewBox="0 0 244 184" fill="none" xmlns="http://www.w3.org/2000/svg">
<circle cx="132" cy="67" r="112" fill="#932924"/>
<circle cx="112" cy="72" r="110.5" stroke="black" stroke-width="3"/>
<path d="M82.125 46.5625C85.2292 46.5625 88.1979 47.1562 91.0312 48.3438C93.8854 49.5104 96.3958 51.1771 98.5625 53.3438C101.521 56.3229 103.521 59.8021 104.562 63.7812C105.625 67.7604 105.625 71.75 104.562 75.75C103.521 79.7292 101.521 83.2083 98.5625 86.1875C96.3958 88.3542 93.8854 90.0312 91.0312 91.2188C88.1979 92.3854 85.2292 92.9688 82.125 92.9688C79.0417 92.9688 76.0729 92.3854 73.2188 91.2188C70.3854 90.0312 67.8854 88.3542 65.7188 86.1875C63.5521 84.0208 61.875 81.5104 60.6875 78.6562C59.5208 75.8021 58.9375 72.8229 58.9375 69.7188C58.9375 66.6354 59.5208 63.6771 60.6875 60.8438C61.875 58.0104 63.5521 55.5104 65.7188 53.3438C67.8854 51.1771 70.3854 49.5104 73.2188 48.3438C76.0729 47.1562 79.0417 46.5625 82.125 46.5625ZM61.3125 71.6562C61.0833 74.4479 61.375 77.0521 62.1875 79.4688C63.0208 81.8854 64.3333 83.9896 66.125 85.7812C67.875 87.5729 69.9583 88.875 72.375 89.6875C74.8125 90.5 77.4167 90.7812 80.1875 90.5312C82.9792 90.2812 85.6875 89.5208 88.3125 88.25C90.9583 86.9583 93.3542 85.2396 95.5 83.0938C97.6458 80.9479 99.3542 78.5625 100.625 75.9375C101.896 73.3125 102.656 70.6042 102.906 67.8125C103.156 65.0417 102.875 62.4375 102.062 60C101.271 57.5625 99.9792 55.4688 98.1875 53.7188C95.0208 50.4896 90.9375 48.875 85.9375 48.875C85.7292 48.875 85.4062 48.8854 84.9688 48.9062C84.5521 48.9271 84.2396 48.9375 84.0312 48.9375C81.2604 49.1875 78.5625 49.9583 75.9375 51.25C73.3333 52.5417 70.9583 54.2604 68.8125 56.4062C66.6667 58.5521 64.9375 60.9375 63.625 63.5625C62.3333 66.1875 61.5625 68.8854 61.3125 71.6562ZM142.281 47.1875C142.302 47.2083 142.323 47.25 142.344 47.3125C142.385 47.3542 142.417 47.3854 142.438 47.4062C142.438 47.4896 142.417 47.5521 142.375 47.5938L127.562 75.6875V92C127.562 92.1667 127.479 92.25 127.312 92.25H124.312C124.146 92.25 124.062 92.1667 124.062 92V75.6875L109.219 47.5938V47.4062C109.24 47.3854 109.26 47.3542 109.281 47.3125C109.302 47.2708 109.323 47.25 109.344 47.25L109.469 47.1875H112.781C112.885 47.1875 112.979 47.2292 113.062 47.3125L124.562 69.1562L127.5 74.7188L141.906 47.3125C141.99 47.1458 142.115 47.1042 142.281 47.1875ZM164.062 41.6875H163.844C163.76 41.5208 163.74 41.4167 163.781 41.375L165.344 38.1875C165.344 38.1042 165.406 38.0625 165.531 38.0625H168.031C168.135 38.0625 168.219 38.125 168.281 38.25C168.281 38.375 168.24 38.4583 168.156 38.5L164.188 41.6875H164.062ZM182.469 91.75C182.656 91.75 182.75 91.8333 182.75 92C182.75 92.1667 182.656 92.25 182.469 92.25H178.188C178.021 92.25 177.938 92.1667 177.938 92C177.938 91.8333 178.021 91.75 178.188 91.75H178.312V91.5625L174.688 81.9375C173.917 80.25 172.75 78.9062 171.188 77.9062C169.625 76.8854 167.906 76.375 166.031 76.375C164.948 76.375 163.865 76.5729 162.781 76.9688C161.885 77.2812 160.938 77.4688 159.938 77.5312C158.146 77.5312 156.604 76.9062 155.312 75.6562C154.021 74.3854 153.344 72.8542 153.281 71.0625L145.562 91.5625V91.75H145.625C145.792 91.75 145.875 91.8333 145.875 92C145.875 92.1667 145.792 92.25 145.625 92.25H144.594C144.427 92.25 144.344 92.1667 144.344 92C144.344 91.8333 144.427 91.75 144.594 91.75C144.802 91.75 144.969 91.625 145.094 91.375L156.25 61.9688C156.854 60.4062 157.917 59.2917 159.438 58.625C160.958 57.9375 162.5 57.8854 164.062 58.4688C164.938 58.7604 165.677 59.25 166.281 59.9375L161.812 48.0312C161.667 47.8229 161.49 47.7188 161.281 47.7188C161.115 47.7188 161.031 47.6354 161.031 47.4688C161.031 47.2812 161.115 47.1875 161.281 47.1875H165C165.083 47.1875 165.167 47.2604 165.25 47.4062L181.969 91.375C182.031 91.625 182.198 91.75 182.469 91.75ZM166.031 75.875C167.531 75.875 168.958 76.1979 170.312 76.8438C171.667 77.4896 172.802 78.3854 173.719 79.5312L167.188 62.3125C167.188 62.2708 167.167 62.25 167.125 62.25C166.875 61.4792 166.458 60.8021 165.875 60.2188C165.292 59.6354 164.635 59.2188 163.906 58.9688C162.469 58.4271 161.042 58.4688 159.625 59.0938C158.208 59.7188 157.229 60.75 156.688 62.1875L154.188 68.7812C153.938 69.5104 153.812 70.2292 153.812 70.9375C153.812 72.6042 154.406 74.0417 155.594 75.25C156.802 76.4375 158.25 77.0312 159.938 77.0312C160.771 76.9688 161.646 76.7708 162.562 76.4375C163.729 76.0625 164.885 75.875 166.031 75.875Z" fill="#F0D9B6"/>
</svg>
