<svg width="40" height="26" viewBox="0 0 40 26" fill="none" xmlns="http://www.w3.org/2000/svg">
<path d="M10.53 0.517499C12.105 0.517499 13.4233 0.715833 14.485 1.1125C15.5467 1.50917 16.5558 2.0925 17.5125 2.8625L15.815 4.84C15.0567 4.19833 14.2517 3.74333 13.4 3.475C12.56 3.195 11.6792 3.055 10.7575 3.055C9.43917 3.055 8.22 3.37 7.1 4C5.98 4.61833 5.07583 5.65083 4.3875 7.0975C3.71083 8.5325 3.3725 10.4808 3.3725 12.9425C3.3725 15.3342 3.69333 17.2533 4.335 18.7C4.98833 20.1467 5.86917 21.1908 6.9775 21.8325C8.08583 22.4742 9.3225 22.795 10.6875 22.795C12.0408 22.795 13.1492 22.5908 14.0125 22.1825C14.8875 21.7742 15.6458 21.3075 16.2875 20.7825L17.8625 22.7775C17.1275 23.4892 16.1708 24.1075 14.9925 24.6325C13.8142 25.1458 12.3675 25.4025 10.6525 25.4025C8.70417 25.4025 6.93667 24.9242 5.35 23.9675C3.775 23.0108 2.52667 21.6108 1.605 19.7675C0.683333 17.9125 0.2225 15.6375 0.2225 12.9425C0.2225 10.2358 0.689167 7.96083 1.6225 6.1175C2.5675 4.27417 3.82167 2.88 5.385 1.935C6.96 0.989999 8.675 0.517499 10.53 0.517499ZM29.5563 21.5525L36.0663 0.902498H39.1288L31.0613 25H27.9113L19.8438 0.902498H23.1163L29.5563 21.5525Z" fill="#4F728C"/>
</svg>
